PathFileType	4	(X/Y/Z)	RBDS019\RBDS019runT25.trc
DataRate	CameraRate	NumFrames	NumMarkers	Units	OrigDataRate	OrigDataStartFrame	OrigNumFrames
150.000000	150.000000	6	33	mm	150.000000	0	4500
Frame#	Time	L.ASIS			L.Heel.Bottom			L.Heel.Lateral			L.Heel.Top			L.Iliac.Crest			L.MT1			L.MT5			L.PSIS			L.Shank.Bottom.Lateral			L.Shank.Bottom.Medial			L.Shank.Top.Lateral			L.Shank.Top.Medial			L.Thigh.Bottom.Lateral			L.Thigh.Bottom.Medial			L.Thigh.Top.Lateral			L.Thigh.Top.Medial			R.ASIS			R.ASY			R.Heel.Bottom			R.Heel.Lateral			R.Heel.Top			R.Iliac.Crest			R.MT1			R.MT5			R.PSIS			R.Shank.Bottom.Lateral			R.Shank.Bottom.Medial			R.Shank.Top.Lateral			R.Shank.Top.Medial			R.Thigh.Bottom.Lateral			R.Thigh.Bottom.Medial			R.Thigh.Top.Lateral			R.Thigh.Top.Medial			
		X1	Y1	Z1	X2	Y2	Z2	X3	Y3	Z3	X4	Y4	Z4	X5	Y5	Z5	X6	Y6	Z6	X7	Y7	Z7	X8	Y8	Z8	X9	Y9	Z9	X10	Y10	Z10	X11	Y11	Z11	X12	Y12	Z12	X13	Y13	Z13	X14	Y14	Z14	X15	Y15	Z15	X16	Y16	Z16	X17	Y17	Z17	X18	Y18	Z18	X19	Y19	Z19	X20	Y20	Z20	X21	Y21	Z21	X22	Y22	Z22	X23	Y23	Z23	X24	Y24	Z24	X25	Y25	Z25	X26	Y26	Z26	X27	Y27	Z27	X28	Y28	Z28	X29	Y29	Z29	X30	Y30	Z30	X31	Y31	Z31	X32	Y32	Z32	X33	Y33	Z33	

1	0	2300.55718594647	974.173296821186	891.2817970803425	1730.64883822506	230.2912158589116	958.8722332262116	1758.626623811354	213.5980089514236	913.5752583658897	1773.082335623013	251.6011362884504	951.8156724913956	2272.926908700649	1044.855235234694	859.7236192520945	1867.478406480204	79.14147438605028	991.2299587332233	1831.159551557161	88.87200392072504	891.6270448411017	2137.325035743457	1031.739918381403	942.2888067846836	1858.839615847946	282.403510169174	892.5239903013901	1830.029716110732	301.3920517072759	930.2657854418106	1891.643929390381	354.9491204879722	876.9300787277459	1866.275349682705	376.9495938078142	917.9524279282639	2090.317218693373	645.4851338986523	849.5400049670436	2037.372093766348	672.0971994017185	892.8704684375258	2127.303832138111	747.2142564639753	832.3721884568889	2076.524959092356	772.6071266358714	874.6458269745721	2285.906667842908	998.8976201922884	1107.846465445964	2387.177779751673	145.3837473102304	1046.262630013461	2207.251999627409	119.3540814963765	1030.554328395858	2233.241209267102	130.9738007684223	1072.738407388022	2223.736297440168	161.9505386017421	1031.136085070713	2229.80395183803	1069.991681349864	1134.532177515503	2407.543939870997	106.1742457424863	1006.138717730365	2372.34100861814	97.39854085589964	1107.504054990734	2132.504599592416	1041.367060006183	1041.687272049744	2298.862767847174	236.4227905163229	1091.922920984654	2260.525309718624	249.0909626091082	1053.301930601079	2305.39135365836	316.1282421295331	1107.781611288244	2270.562573511368	327.0406516588935	1068.040969734705	2358.463165505362	636.1057317701608	1137.652995437849	2299.458035755311	609.2981507509239	1107.469346046802	2305.420495680115	730.3029268736226	1159.91771461317	2247.687763386276	702.8080740776243	1135.025022579269	
2	0.006666666666666667	2301.877910655435	975.9530701737565	892.4461691923646	1724.013411568655	244.1483310375824	963.3369238619478	1749.654028137673	226.394348659395	917.2689517390206	1767.166089358355	263.1440729313612	955.1558748538862	2274.480714354435	1046.729948451034	861.226751119685	1853.100975180092	86.44889457622918	991.833304126679	1814.84508473488	98.58771212759083	893.2813026304193	2138.56341776495	1033.792929091515	943.0919237578436	1851.27050698932	290.4336490135685	894.0841590890229	1823.941425847298	309.932593138285	932.617492395667	1886.272555841212	361.9564792442366	878.4380350174243	1862.271533743975	384.4183940844402	920.0675942870431	2092.677364056103	646.6591857516906	849.8129690638303	2039.51065141125	673.3686717011331	892.8453383701572	2129.728706699493	748.3452885135565	832.5147475892114	2078.616252887455	773.844870360763	874.3410169562237	2286.492326100762	999.4832919404389	1108.691844459934	2404.237282854427	144.5809833093212	1044.566294815876	2227.38549902718	107.874842424914	1030.421929693832	2253.115435987377	120.5655571104248	1072.496980206851	2241.068859643446	151.1131427200606	1031.353757358271	2230.20587592645	1070.414010780447	1135.925787612246	2426.445430750294	107.8620006422563	1003.580941050393	2393.595821143842	95.57697758702469	1105.29213958787	2133.594583779114	1043.15776132429	1042.756921841544	2311.784573482639	229.7491633733711	1092.067520085166	2272.80879732216	240.4860590247541	1053.817953413287	2314.092669763344	309.0859480005576	1108.766603884462	2278.42581858107	318.4015524284859	1069.455966650631	2354.15845633152	633.5701896324284	1139.038798270787	2294.717645570392	608.3637730975989	1108.456244148568	2303.275523904052	728.8658138401419	1161.381075168835	2245.15124649592	702.9363940305465	1135.932788691346	
3	0.01333333333333333	2303.183208484286	977.6035610934243	893.5933946332233	1717.52584396522	257.9605273832479	967.7479342213028	1740.871231670894	239.1895214638455	920.9339865085497	1761.361793709794	274.6923625321266	958.462129244257	2275.919952728299	1048.498895789189	862.6941289538464	1838.985935200988	93.90767227548521	992.4525072905999	1798.842799099813	108.4296691161035	894.9495821075858	2139.753543207696	1035.658242102505	943.9199088977738	1843.904524042873	298.5046924613948	895.6684823133922	1818.060543265311	318.5186237077893	934.9662335820603	1881.122081704367	368.9470144619936	879.9592749618513	1858.511019073088	391.8743725385848	922.1762237903652	2095.174132120546	647.6172056766774	850.087081008935	2041.766779957183	674.3834495470551	892.8181476115793	2132.224261676645	749.2833973501597	832.6837744248785	2080.766984484494	774.8525508439699	874.0713291551098	2287.022618439765	999.9480515629289	1109.542725247087	2420.693379860781	143.9121122396776	1042.907553889293	2246.983712517929	96.66753062269122	1030.293591262249	2272.451459903901	110.4095581083837	1072.261730210626	2257.890473238229	140.510618283003	1031.595073523049	2230.593842469636	1070.674886287147	1137.304727264897	2444.672112159954	109.669847960761	1001.0807228868	2414.193697360507	93.93458266255898	1103.112681899692	2134.636122279629	1044.737231856065	1043.843247534935	2324.279715411225	223.2837462279736	1092.220516803735	2284.679121191049	232.1256042865225	1054.34793148743	2322.491962898916	302.2374041805183	1109.73013100217	2286.006952343317	309.9804820340148	1070.840231530376	2349.846925121	630.9867477613728	1140.40976443091	2290.011045018027	607.3554148327376	1109.389862309675	2301.061876522921	727.3420109853267	1162.831949226804	2242.576956853718	702.9481419341162	1136.804301443301	
4	0.02	2304.465582289859	979.0201447312769	894.7136008479906	1711.320512288562	271.7025158204985	972.0632248975156	1732.444285888369	251.9989580932145	924.549098527362	1755.768613532708	286.2597310679243	961.7076949317998	2277.135962788283	1050.077147196421	864.0952756517364	1825.342975884479	101.6612782110791	993.1041936631989	1783.407216981142	118.5289707707671	896.6478958135871	2140.863392518225	1037.179435014962	944.8017078384585	1836.915881328767	306.6577652821184	897.2985508731795	1812.566066409883	327.1961031668772	937.3091126410559	1876.385770329093	375.9098117572312	881.5063505104785	1855.206821518653	399.3103643420301	924.2721610330532	2097.924202661983	648.1639266366723	850.3621937859913	2044.24650635673	674.9075954500612	892.7957323222864	2134.849034200082	749.8555679368484	832.9061772647764	2083.032055129487	775.4225049711193	873.8771194659425	2287.45439709198	1000.185465982186	1110.406013243177	2436.013597479938	143.4374153534771	1041.331797228925	2265.540118806291	85.97444305347889	1030.175168699575	2290.744405854301	100.7229365466282	1072.040527874339	2273.737326790209	130.3522679470337	1031.87773056651	2230.951155977839	1070.651985705783	1138.648306497085	2461.625855963938	111.6169491990661	998.7041257887267	2433.53205939636	92.56113260071719	1101.004019570918	2135.595694966351	1045.918180304877	1044.965286838305	2335.9594666698	217.1701934872094	1092.392210004565	2295.7570403268	224.1825790585662	1054.906795941202	2330.304825035686	295.7168343957273	1110.655370612685	2293.037248290752	301.9306568637654	1072.170674443733	2345.50070903356	628.3020399847793	1141.733053485676	2285.339886790662	606.2036775605201	1110.208323289476	2298.711986716243	725.6502569808606	1164.242646287448	2239.92000706977	702.7428544809979	1137.594776129534	
5	0.02666666666666667	2305.717721314179	980.1152266325913	895.8025265276117	1705.530407023971	285.3472144341296	976.2454418243166	1724.530859359659	264.8283724542098	928.0929384216877	1750.491943756805	297.8490887771558	964.868195471528	2278.044716216472	1051.383355677728	865.4020246426069	1812.354543536894	109.8132038214203	993.7958847988299	1768.759481823568	128.9835784261776	898.3815722189781	2141.869276266463	1038.22780978733	945.7539675191219	1830.465315538077	314.9118211373992	898.9850336839485	1807.619955553211	335.9869046055053	939.6365693970304	1872.236185580613	382.8234255090777	883.0852265967834	1852.542013067791	406.7066958856689	926.3447440952821	2101.014600681955	648.1395736452682	850.6374387580048	2047.031459593589	674.7488538464538	892.7873014615957	2137.641724090401	749.9197201719868	833.2044546495549	2085.450573719186	775.3834474383956	873.7956597965122	2287.749866815118	1000.110660959724	1111.289885510693	2449.747384475391	143.166405884469	1039.881517707168	2282.595712944526	75.98915314877378	1030.081873511987	2307.540510143008	91.67708005293419	1071.848601637891	2288.198650501802	120.8075355184791	1032.219439721959	2231.258556394433	1070.256618195035	1139.93375759487	2476.80150690375	113.6627799174663	996.5124695438167	2451.089755120343	91.48687630073375	1099.004899576162	2136.444331783275	1046.547841225336	1046.130582856889	2346.482047174194	211.5064720753328	1092.594206022168	2305.712903587973	216.7828353240277	1055.502874745784	2337.278117370483	289.6205208079783	1111.527755371389	2299.280950313575	294.368148904243	1073.423802834323	2341.103172503209	625.4785710825605	1142.971802364329	2280.70755177806	604.855841461208	1110.858064175351	2296.178787270658	723.7322731185038	1165.579396529145	2237.148276829459	702.2446582327527	1138.263102813314	
6	0.03333333333333333	2306.932639965777	980.8190157194058	896.8629588778474	1700.2912108046	298.8685424521614	980.2648760092375	1717.282385422065	277.6751794739502	931.5452990110472	1745.649649910121	309.4518136251186	967.9238141636268	2278.596420948378	1052.337482159259	866.5901195074289	1800.168136780477	118.4194009065666	994.5221231830934	1755.080504584731	139.8547029976392	900.1415223807154	2142.757238338749	1038.705076220367	946.7767013891256	1824.699008443476	323.259500162456	900.7253944590815	1803.366108478294	344.884196531575	941.93174647417	1868.822907434191	389.6534415610068	884.6935986283819	1850.666059587524	414.0279589277657	928.3785182363015	2104.497891211038	647.4246872240712	850.9109572746913	2050.175678834239	673.7628506283646	892.8051481467795	2140.618136793218	749.3682032657532	833.5944850358948	2088.043868975572	774.6051014313001	873.8592133865416	2287.877961389688	999.6620408020053	1112.204716771607	2461.545757384261	143.0413941140447	1038.593392369598	2297.748343717446	66.84436873479019	1030.037789831197	2322.447253813285	83.38597072346592	1071.707849995382	2300.927960929566	111.996193404419	1032.634937671241	2231.492842001799	1069.43755441652	1141.13711699213	2489.809943285092	115.6896262477142	994.5588559524456	2466.445694511568	90.66565016132425	1097.153952279467	2137.157795199249	1046.513436489956	1047.33152438874	2355.56507815563	206.3299828946224	1092.83755109788	2314.278376452763	209.9908661287186	1056.135551707737	2343.198945091753	283.9936114241003	1112.335136665166	2304.543207480142	287.3598209693778	1074.5766529209	2336.65279767178	622.4949068114621	1144.086888963381	2276.120853515799	603.2758294913803	1111.298507313334	2293.440882674023	721.5544035951327	1166.80331733184	2234.246083814923	701.4041005118258	1138.774611818063	
